<?xml version="1.0" encoding="UTF-8" standalone="no"?>
<svg
   viewBox="0 0 512 512"
   version="1.1"
   id="svg4"
   sodipodi:docname="envelope.svg"
   inkscape:version="1.2.2 (b0a8486541, 2022-12-01)"
   xmlns:inkscape="http://www.inkscape.org/namespaces/inkscape"
   xmlns:sodipodi="http://sodipodi.sourceforge.net/DTD/sodipodi-0.dtd"
   xmlns="http://www.w3.org/2000/svg"
   xmlns:svg="http://www.w3.org/2000/svg">
  <defs
     id="defs8" />
  <sodipodi:namedview
     id="namedview6"
     pagecolor="#505050"
     bordercolor="#eeeeee"
     borderopacity="1"
     inkscape:showpageshadow="0"
     inkscape:pageopacity="0"
     inkscape:pagecheckerboard="0"
     inkscape:deskcolor="#505050"
     showgrid="false"
     inkscape:zoom="1.5273438"
     inkscape:cx="256.9821"
     inkscape:cy="256"
     inkscape:window-width="1920"
     inkscape:window-height="1011"
     inkscape:window-x="0"
     inkscape:window-y="0"
     inkscape:window-maximized="1"
     inkscape:current-layer="svg4" />
  <!--! Font Awesome Free 6.2.1 by @fontawesome - https://fontawesome.com License - https://fontawesome.com/license/free (Icons: CC BY 4.0, Fonts: SIL OFL 1.1, Code: MIT License) Copyright 2022 Fonticons, Inc. -->
  <path
     d="M64 112c-8.8 0-16 7.2-16 16v22.1L220.5 291.7c20.7 17 50.4 17 71.1 0L464 150.1V128c0-8.8-7.2-16-16-16H64zM48 212.2V384c0 8.8 7.2 16 16 16H448c8.8 0 16-7.2 16-16V212.2L322 328.8c-38.4 31.5-93.7 31.5-132 0L48 212.2zM0 128C0 92.7 28.7 64 64 64H448c35.3 0 64 28.7 64 64V384c0 35.3-28.7 64-64 64H64c-35.3 0-64-28.7-64-64V128z"
     id="path2" />
  <path
     style="fill:#fffff7;stroke-width:0.774547;fill-opacity:1"
     d="M 57.616368,447.39578 C 52.692185,446.8793 45.279332,444.99293 40.59335,443.06388 17.51851,433.56481 2.8635431,413.60028 0.65524437,388.656 c -0.86864492,-9.81194 -0.86864492,-255.50006 0,-265.31201 C 3.1904252,94.707362 22.730872,72.221942 50.741688,65.70894 55.787676,64.53566 63.306324,64.491049 256,64.491049 c 192.32402,0 200.22201,0.04663 205.25831,1.211802 27.99532,6.476851 47.5491,28.97999 50.08645,57.641139 0.86864,9.81195 0.86864,255.50007 0,265.31201 -2.49551,28.18851 -20.93867,49.90527 -48.7602,57.415 l -5.25464,1.41836 -198.71099,0.0734 c -109.29105,0.0403 -199.742204,-0.0348 -201.002562,-0.16697 z M 454.72553,398.81587 c 3.0193,-1.37157 6.38726,-4.52742 8.02505,-7.51962 1.04756,-1.91389 1.1388,-8.27909 1.29959,-90.66847 0.0988,-50.63656 -0.0733,-88.51523 -0.40156,-88.38875 -0.31598,0.12173 -32.31596,26.29601 -71.11107,58.16506 -38.79511,31.86906 -72.70614,59.5642 -75.35785,61.54476 -12.48284,9.32343 -27.68606,15.74986 -44.48404,18.80349 -7.97136,1.44909 -25.41994,1.44909 -33.3913,0 -16.70122,-3.03604 -32.23538,-9.58074 -44.33457,-18.67862 -2.72528,-2.04924 -36.69337,-29.80057 -75.48466,-61.66963 -38.791295,-31.86905 -70.794808,-58.04333 -71.118925,-58.16506 -0.347969,-0.13069 -0.518482,36.06676 -0.416368,88.38875 0.160794,82.38938 0.252031,88.75458 1.2996,90.66847 1.637782,2.9922 5.005745,6.14805 8.025046,7.51962 2.531649,1.15004 10.214159,1.19629 198.725527,1.19629 188.51137,0 196.19388,-0.0462 198.72553,-1.19629 z M 270.73146,302.89914 c 2.16061,-0.58922 6.87468,-2.52177 10.4757,-4.29453 6.16798,-3.03646 11.66155,-7.42461 94.81771,-75.73838 l 88.27039,-72.51516 -0.20901,-13.79446 c -0.17491,-11.54392 -0.39283,-14.13029 -1.33567,-15.85286 -1.63779,-2.9922 -5.00575,-6.14805 -8.02505,-7.51962 -2.53165,-1.15004 -10.21416,-1.19629 -198.72553,-1.19629 -188.511368,0 -196.193878,0.0463 -198.725527,1.19629 -3.019301,1.37157 -6.387264,4.52742 -8.025046,7.51962 -0.942773,1.72243 -1.160762,4.3083 -1.335571,15.84304 l -0.208906,13.78464 88.05467,72.31255 c 80.80268,66.35704 88.59791,72.59135 94.65064,75.69794 9.61854,4.93674 15.10901,6.13139 26.8992,5.85284 6.09306,-0.14395 10.90073,-0.60803 13.422,-1.29562 z"
     id="path860" />
</svg>
