<?xml version="1.0" encoding="UTF-8" standalone="no"?>
<svg
   viewBox="0 0 496 512"
   version="1.1"
   id="svg4"
   sodipodi:docname="github.svg"
   inkscape:version="1.2.2 (b0a8486541, 2022-12-01)"
   xmlns:inkscape="http://www.inkscape.org/namespaces/inkscape"
   xmlns:sodipodi="http://sodipodi.sourceforge.net/DTD/sodipodi-0.dtd"
   xmlns="http://www.w3.org/2000/svg"
   xmlns:svg="http://www.w3.org/2000/svg">
  <defs
     id="defs8" />
  <sodipodi:namedview
     id="namedview6"
     pagecolor="#505050"
     bordercolor="#eeeeee"
     borderopacity="1"
     inkscape:showpageshadow="0"
     inkscape:pageopacity="0"
     inkscape:pagecheckerboard="0"
     inkscape:deskcolor="#505050"
     showgrid="false"
     inkscape:zoom="1.5273437"
     inkscape:cx="382.03581"
     inkscape:cy="292.66496"
     inkscape:window-width="1920"
     inkscape:window-height="1011"
     inkscape:window-x="0"
     inkscape:window-y="0"
     inkscape:window-maximized="1"
     inkscape:current-layer="svg4" />
  <!--! Font Awesome Free 6.2.1 by @fontawesome - https://fontawesome.com License - https://fontawesome.com/license/free (Icons: CC BY 4.0, Fonts: SIL OFL 1.1, Code: MIT License) Copyright 2022 Fonticons, Inc. -->
  <path
     d="M165.9 397.4c0 2-2.3 3.6-5.2 3.6-3.3.3-5.6-1.3-5.6-3.6 0-2 2.3-3.6 5.2-3.6 3-.3 5.6 1.3 5.6 3.6zm-31.1-4.5c-.7 2 1.3 4.3 4.3 4.9 2.6 1 5.6 0 6.2-2s-1.3-4.3-4.3-5.2c-2.6-.7-5.5.3-6.2 2.3zm44.2-1.7c-2.9.7-4.9 2.6-4.6 4.9.3 2 2.9 3.3 5.9 2.6 2.9-.7 4.9-2.6 4.6-4.6-.3-1.9-3-3.2-5.9-2.9zM244.8 8C106.1 8 0 113.3 0 252c0 110.9 69.8 205.8 169.5 239.2 12.8 2.3 17.3-5.6 17.3-12.1 0-6.2-.3-40.4-.3-61.4 0 0-70 15-84.7-29.8 0 0-11.4-29.1-27.8-36.6 0 0-22.9-15.7 1.6-15.4 0 0 24.9 2 38.6 25.8 21.9 38.6 58.6 27.5 72.9 20.9 2.3-16 8.8-27.1 16-33.7-55.9-6.2-112.3-14.3-112.3-110.5 0-27.5 7.6-41.3 23.6-58.9-2.6-6.5-11.1-33.3 2.6-67.9 20.9-6.5 69 27 69 27 20-5.6 41.5-8.5 62.8-8.5s42.8 2.9 62.8 8.5c0 0 48.1-33.6 69-27 13.7 34.7 5.2 61.4 2.6 67.9 16 17.7 25.8 31.5 25.8 58.9 0 96.5-58.9 104.2-114.8 110.5 9.2 7.9 17 22.9 17 46.4 0 33.7-.3 75.4-.3 83.6 0 6.5 4.6 14.4 17.3 12.1C428.2 457.8 496 362.9 496 252 496 113.3 383.5 8 244.8 8zM97.2 352.9c-1.3 1-1 3.3.7 5.2 1.6 1.6 3.9 2.3 5.2 1 1.3-1 1-3.3-.7-5.2-1.6-1.6-3.9-2.3-5.2-1zm-10.8-8.1c-.7 1.3.3 2.9 2.3 3.9 1.6 1 3.6.7 4.3-.7.7-1.3-.3-2.9-2.3-3.9-2-.6-3.6-.3-4.3.7zm32.4 35.6c-1.6 1.3-1 4.3 1.3 6.2 2.3 2.3 5.2 2.6 6.5 1 1.3-1.3.7-4.3-1.3-6.2-2.2-2.3-5.2-2.6-6.5-1zm-11.4-14.7c-1.6 1-1.6 3.6 0 5.9 1.6 2.3 4.3 3.3 5.6 2.3 1.6-1.3 1.6-3.9 0-6.2-1.4-2.3-4-3.3-5.6-2z"
     id="path2" />
  <path
     style="fill:#fffff7;stroke-width:0.774547"
     d="M 162.04604,488.18703 C 134.40926,477.43295 110.42761,463.3584 89.134316,445.39598 83.035112,440.25087 70.939224,428.41403 64.531125,421.31969 35.943037,389.67016 14.817002,347.95339 6.0096543,305.75959 1.9478273,286.3004 0.58813623,272.64363 0.59919864,251.41688 0.61404677,222.92595 4.4032433,198.57614 12.852706,172.67446 40.200749,88.839497 110.6222,28.066135 198.53081,12.435169 c 25.8741,-4.6006535 57.44887,-5.2018559 83.00372,-1.58044 55.69461,7.892567 105.56133,32.460321 144.05302,70.970374 19.11488,19.123997 32.73852,38.060037 44.7615,62.215817 16.09955,32.34616 24.11791,64.7897 25.08143,101.48338 2.7495,104.70923 -56.14614,198.65835 -149.4049,238.32764 -13.90875,5.91633 -18.62149,7.35046 -23.03839,7.01081 -4.9998,-0.38448 -7.88852,-2.06246 -10.05049,-5.83807 l -1.61189,-2.81496 -0.005,-49.43223 c -0.005,-48.0446 -0.0437,-49.59803 -1.39142,-55.339 -2.50591,-10.67462 -6.77948,-19.59208 -12.33756,-25.74422 l -2.33994,-2.59003 4.10846,-0.44734 c 45.0442,-4.90459 68.79556,-13.67873 85.78778,-31.69137 13.18705,-13.97896 21.00322,-34.35851 23.38214,-60.96553 2.94053,-32.88853 -1.93439,-50.04582 -20.22157,-71.16981 l -4.64824,-5.3693 1.61624,-5.5773 c 0.88893,-3.0675 1.96131,-8.16437 2.38305,-11.32635 1.06909,-8.01528 0.39452,-24.96091 -1.31049,-32.92041 -1.61698,-7.5486 -4.9935,-17.7365 -6.11414,-18.44809 -0.4496,-0.28549 -3.17449,-0.52284 -6.05531,-0.52744 -12.71544,-0.0204 -32.93074,8.38106 -56.13158,23.32805 l -6.37197,4.10511 -8.35948,-1.91861 c -19.60392,-4.49938 -34.18144,-6.14156 -54.51805,-6.14156 -14.97863,0 -23.92337,0.64293 -36.66496,2.63538 -6.69121,1.04633 -19.81274,3.77724 -23.60965,4.91374 -2.21273,0.66231 -2.61101,0.51593 -7.85678,-2.88757 -17.22828,-11.17787 -35.28762,-19.87071 -47.22844,-22.73334 -5.21796,-1.25093 -13.70269,-1.74342 -15.84869,-0.91991 -0.60773,0.2332 -1.96822,3.31354 -3.34642,7.57674 -5.86964,18.15662 -6.59197,39.15269 -1.90358,55.33137 l 1.59499,5.50399 -3.8941,4.52448 c -8.58969,9.9802 -13.865088,19.50056 -16.722938,30.17942 -4.886372,18.25879 -3.221449,50.80083 3.712085,72.55507 7.536243,23.64527 22.368303,40.17436 44.372403,49.44931 8.60699,3.62793 16.01926,5.79096 28.17358,8.22152 8.09657,1.61911 28.70546,4.58738 31.85053,4.58738 0.65087,0 0.0586,1.06646 -1.70497,3.06997 -5.64662,6.41491 -10.06309,15.81744 -11.9747,25.49381 -0.88322,4.47081 -0.90985,4.51021 -4.08266,6.04093 -9.15889,4.41872 -25.05284,6.41476 -35.01139,4.39689 -14.53239,-2.94463 -24.41673,-10.64831 -34.34123,-26.76492 -9.67449,-15.7106 -26.596408,-25.8777 -41.993597,-25.23077 -6.153113,0.25854 -8.15375,1.39018 -8.15375,4.6121 0,2.60714 4.795102,7.60859 11.583902,12.08239 8.924978,5.88153 16.048417,15.0616 22.785159,29.36354 8.121746,17.24224 8.254286,17.46583 13.401656,22.60637 8.20632,8.19545 20.32327,13.24157 36.26397,15.10218 7.39114,0.86269 25.39071,0.447 32.72131,-0.75568 2.45825,-0.40332 4.61419,-0.58866 4.79096,-0.41189 0.17677,0.17677 0.37519,14.71382 0.44093,32.30453 0.13372,35.77937 0.31478,34.27544 -4.57559,38.00555 -2.09032,1.59439 -3.05398,1.8519 -7.36642,1.9685 -4.45531,0.12045 -5.69623,-0.15177 -12.16352,-2.66834 z"
     id="path306" />
  <path
     style="fill:#fffff7;stroke-width:0.273844"
     d=""
     id="path308" />
  <path
     style="fill:#fffff7;stroke-width:0.068461"
     d="m 177.42931,398.73564 c -1.30307,-0.28457 -2.31123,-0.99304 -2.78593,-1.95777 -0.18858,-0.38323 -0.19231,-0.40575 -0.19003,-1.14427 0.002,-0.67939 0.0177,-0.79232 0.15897,-1.15039 0.53254,-1.34992 1.83101,-2.42252 3.70196,-3.058 0.46614,-0.15832 0.63328,-0.18485 1.30014,-0.20635 1.3094,-0.0422 2.29986,0.16023 3.35459,0.68565 1.49632,0.74539 2.17917,1.95686 1.83905,3.26269 -0.39575,1.51937 -2.09852,2.86797 -4.36743,3.45903 -0.88536,0.23064 -2.23213,0.27957 -3.01132,0.10941 z"
     id="path310" />
  <path
     style="fill:#fffff7;stroke-width:0.068461"
     d="m 158.91275,400.95026 c -1.6467,-0.30974 -2.64993,-0.88226 -3.29858,-1.88245 -0.3355,-0.51732 -0.43407,-0.89732 -0.43407,-1.67334 0,-0.65784 0.004,-0.67588 0.2203,-1.11426 0.3699,-0.74818 0.98239,-1.32755 1.86491,-1.76406 0.97498,-0.48224 1.68178,-0.6361 3.15413,-0.68663 1.20045,-0.0412 1.76121,0.0151 2.51395,0.25243 1.81696,0.57284 2.92384,1.83036 2.92384,3.32174 0,1.59495 -1.50954,2.97509 -3.76324,3.44066 -0.42316,0.0874 -2.85,0.16821 -3.18124,0.10591 z"
     id="path312" />
  <path
     style="fill:#fffff7;stroke-width:0.068461"
     d="m 140.15048,398.06553 c -0.2136,-0.0446 -0.56516,-0.13469 -0.78126,-0.20024 -0.21609,-0.0656 -0.62727,-0.18711 -0.91373,-0.27012 -2.17528,-0.63042 -3.75221,-2.25501 -3.75186,-3.86529 4.8e-4,-2.22121 2.91751,-3.79914 5.89437,-3.18847 1.85406,0.38034 3.72513,1.70262 4.41993,3.12356 0.29069,0.5945 0.37441,0.97107 0.33896,1.52469 -0.083,1.29697 -1.02488,2.28623 -2.63075,2.76321 -0.42142,0.12517 -0.65353,0.15486 -1.34819,0.17246 -0.57242,0.0145 -0.96255,-0.005 -1.22747,-0.0598 z"
     id="path314" />
  <path
     style="fill:#fffff7;stroke-width:0.068461"
     d="m 123.82455,388.54017 c -1.02438,-0.11899 -2.25519,-0.69584 -3.19322,-1.49657 -0.53948,-0.46052 -1.31753,-1.24744 -1.59536,-1.61353 -0.34606,-0.45601 -0.75556,-1.24626 -0.92067,-1.77672 -0.15455,-0.49652 -0.21574,-1.38812 -0.12447,-1.81369 0.1528,-0.71249 0.70866,-1.46725 1.42104,-1.92954 0.97435,-0.63228 2.41533,-0.6288 3.77664,0.009 0.7431,0.34823 1.25588,0.71574 1.97717,1.41705 1.27144,1.2362 1.97886,2.62223 2.07374,4.06307 0.0669,1.01548 -0.15722,1.65525 -0.80603,2.30107 -0.70195,0.69872 -1.52951,0.9651 -2.60884,0.83973 z"
     id="path316" />
  <path
     style="fill:#fffff7;stroke-width:0.068461"
     d="m 110.88013,374.12967 c -1.95054,-0.5093 -3.84025,-2.47051 -4.45707,-4.62569 -0.15379,-0.53735 -0.21631,-1.62429 -0.12006,-2.0871 0.0867,-0.417 0.34475,-0.95906 0.58885,-1.23708 0.2992,-0.34077 0.95753,-0.77335 1.37155,-0.90123 0.90682,-0.28008 2.01724,-0.0445 3.02977,0.64269 1.04153,0.70693 2.12381,2.22129 2.59711,3.63398 0.47221,1.40945 0.32658,2.78491 -0.39931,3.77167 -0.61394,0.83458 -1.47502,1.09934 -2.61084,0.80276 z"
     id="path318" />
  <path
     style="fill:#fffff7;stroke-width:0.068461"
     d="m 100.6236,359.66429 c -1.061694,-0.26519 -2.267764,-1.03685 -2.938989,-1.88039 -1.090806,-1.37083 -1.506134,-2.88908 -1.092648,-3.99422 0.178602,-0.47736 0.699269,-1.00994 1.256647,-1.28541 0.427133,-0.2111 0.455455,-0.21679 1.078234,-0.21628 0.749284,6e-4 1.144716,0.10888 1.957746,0.53605 1.30086,0.68348 2.30252,1.85809 2.75937,3.23583 0.44281,1.3354 0.2322,2.36435 -0.62813,3.0688 -0.54176,0.44359 -0.85943,0.56026 -1.56861,0.57604 -0.33421,0.007 -0.70483,-0.0107 -0.82362,-0.0404 z"
     id="path320" />
  <path
     style="fill:#fffff7;stroke-width:0.193637"
     d="m 88.87193,348.68542 c -1.217784,-0.61433 -2.394572,-1.80271 -2.537017,-2.56201 -0.269073,-1.43427 0.89417,-2.32925 2.845936,-2.1896 1.251914,0.0896 1.97223,0.40415 2.863333,1.25047 1.09218,1.03729 1.335906,1.85781 0.837897,2.82086 -0.619967,1.19888 -2.387688,1.49876 -4.010149,0.68028 z"
     id="path322" />
</svg>
