<?xml version="1.0" encoding="UTF-8" standalone="no"?>
<svg
   viewBox="0 0 448 512"
   version="1.1"
   id="svg4"
   sodipodi:docname="linkedin.svg"
   inkscape:version="1.2.2 (b0a8486541, 2022-12-01)"
   xmlns:inkscape="http://www.inkscape.org/namespaces/inkscape"
   xmlns:sodipodi="http://sodipodi.sourceforge.net/DTD/sodipodi-0.dtd"
   xmlns="http://www.w3.org/2000/svg"
   xmlns:svg="http://www.w3.org/2000/svg">
  <defs
     id="defs8" />
  <sodipodi:namedview
     id="namedview6"
     pagecolor="#505050"
     bordercolor="#eeeeee"
     borderopacity="1"
     inkscape:showpageshadow="0"
     inkscape:pageopacity="0"
     inkscape:pagecheckerboard="0"
     inkscape:deskcolor="#505050"
     showgrid="false"
     inkscape:zoom="1.5273437"
     inkscape:cx="190.85422"
     inkscape:cy="215.40665"
     inkscape:window-width="1920"
     inkscape:window-height="1011"
     inkscape:window-x="0"
     inkscape:window-y="0"
     inkscape:window-maximized="1"
     inkscape:current-layer="svg4" />
  <!--! Font Awesome Free 6.2.1 by @fontawesome - https://fontawesome.com License - https://fontawesome.com/license/free (Icons: CC BY 4.0, Fonts: SIL OFL 1.1, Code: MIT License) Copyright 2022 Fonticons, Inc. -->
  <path
     d="M416 32H31.9C14.3 32 0 46.5 0 64.3v383.4C0 465.5 14.3 480 31.9 480H416c17.6 0 32-14.5 32-32.3V64.3c0-17.8-14.4-32.3-32-32.3zM135.4 416H69V202.2h66.5V416zm-33.2-243c-21.3 0-38.5-17.3-38.5-38.5S80.9 96 102.2 96c21.2 0 38.5 17.3 38.5 38.5 0 21.3-17.2 38.5-38.5 38.5zm282.1 243h-66.4V312c0-24.8-.5-56.7-34.5-56.7-34.6 0-39.9 27-39.9 54.9V416h-66.4V202.2h63.7v29.2h.9c8.9-16.8 30.6-34.5 62.9-34.5 67.2 0 79.7 44.3 79.7 101.9V416z"
     id="path2" />
  <path
     style="fill:#fffff7;stroke-width:0.774547"
     d="M 27.189871,479.2242 C 12.954801,476.82563 2.3015616,465.47388 0.62813057,450.92087 c -0.83152774,-7.23138 -0.83152774,-382.610357 0,-389.841744 C 2.0880253,48.383141 10.112026,38.330371 22.296202,33.932549 l 4.220422,-1.523342 h 197.728896 197.7289 l 3.87554,1.476012 c 9.97009,3.797146 17.05281,11.113025 20.43938,21.112223 1.179,3.481117 1.21961,10.174107 1.21961,201.002558 0,190.82845 -0.0406,197.52144 -1.21961,201.00256 -3.38657,9.99919 -10.46929,17.31508 -20.43938,21.11222 l -3.87554,1.47601 -195.7647,0.0909 c -107.67059,0.05 -197.229521,-0.15587 -199.019849,-0.45754 z M 135.52941,309.03325 V 201.65729 h -33.3913 -33.391307 v 107.37596 107.37596 h 33.391307 33.3913 z m 108.19173,47.30435 c 0.22864,-54.48289 0.3619,-60.65029 1.43234,-66.29156 4.17779,-22.01716 13.61518,-31.9121 32.474,-34.04846 19.83531,-2.24697 32.7687,6.33903 37.31881,24.77458 2.3672,9.5911 2.59847,16.41636 2.59847,76.68541 v 58.95164 h 33.4208 33.42082 l -0.22547,-71.85678 c -0.21818,-69.53318 -0.27038,-72.13249 -1.61434,-80.38292 -3.83072,-23.51647 -9.81945,-37.32407 -20.9499,-48.3021 -12.23237,-12.06485 -27.62475,-17.81658 -51.25396,-19.15226 -17.84147,-1.00853 -35.41497,3.57293 -49.18513,12.82269 -5.58453,3.75126 -14.09765,12.41713 -17.29568,17.60599 l -2.59336,4.20777 -0.17597,-14.84716 -0.17598,-14.84715 h -32.06954 -32.06956 v 107.37596 107.37596 h 33.34578 33.34578 z M 114.43429,171.20996 c 12.21379,-3.87901 22.04842,-14.35168 25.29511,-26.93618 1.32976,-5.15433 1.32976,-14.29861 0,-19.45293 C 134.2165,103.45232 111.23243,90.794615 90.315255,97.607693 77.611284,101.74559 67.80524,112.28417 64.496712,125.35495 c -2.269192,8.96473 -0.512991,20.77506 4.298751,28.90884 5.725587,9.67854 16.866098,17.05402 28.432158,18.82328 3.931779,0.60144 12.264869,-0.30764 17.206669,-1.87711 z"
     id="path329" />
</svg>
